HIERARCHY
ROOT pelvis
{
  OFFSET 0 100 0
  CHANNELS 6 Xposition Yposition Zposition Zrotation Xrotation Yrotation
  JOINT pelvis_right_femur
  {
    OFFSET -10.78128 -3.44521 -0.5502486
    CHANNELS 3 Zrotation Xrotation Yrotation
    JOINT right_femur_tibia
    {
      OFFSET -0.8047443 -44.0398 -0.1307829
      CHANNELS 3 Zrotation Xrotation Yrotation
      JOINT right_tibia_foot
      {
        OFFSET 3.006224 -47.83518 -5
        CHANNELS 3 Zrotation Xrotation Yrotation
        End Site
        {
          OFFSET 0 -5 15
        }
      }
    }
  }
  JOINT pelvis_left_femur
  {
    OFFSET 10.78128 -3.44521 -0.5502486
    CHANNELS 3 Zrotation Xrotation Yrotation
    JOINT left_femur_tibia
    {
      OFFSET 0.8047443 -44.0398 -0.1307829
      CHANNELS 3 Zrotation Xrotation Yrotation
      JOINT left_tibia_foot
      {
        OFFSET -4.370144 -48.10324 -4.275266
        CHANNELS 3 Zrotation Xrotation Yrotation
        End Site
        {
          OFFSET 0 -5 15
        }
      }
    }
  }
  JOINT pelvis_spine1
  {
    OFFSET 0 6.468898 -3.129235
    CHANNELS 3 Zrotation Xrotation Yrotation
    JOINT spine1
    {
      OFFSET 0 23.15396 4.99043
      CHANNELS 3 Zrotation Xrotation Yrotation
      JOINT spine2
      {
        OFFSET 0 20.79997 -5.064912
        CHANNELS 3 Zrotation Xrotation Yrotation
        JOINT neck
        {
          OFFSET 0 14.38658 9.616178
          CHANNELS 3 Zrotation Xrotation Yrotation
          End Site
          {
            OFFSET 0 20 0
          }
        }
      }
      JOINT right_manubrium
      {
        OFFSET -5.722621 16.35077 3.967754
        CHANNELS 3 Zrotation Xrotation Yrotation
        JOINT right_clavicle
        {
          OFFSET -13.16364 1.694482 -4.693211
          CHANNELS 3 Zrotation Xrotation Yrotation
          JOINT right_humerus
          {
            OFFSET -28.5034 -0.3100689 -2.792744
            CHANNELS 3 Zrotation Xrotation Yrotation
            JOINT right_radius
            {
              OFFSET -25.15693 0.02248979 -1.271978
              CHANNELS 3 Zrotation Xrotation Yrotation
              End Site
              {
                OFFSET -15 0 0
              }
            }
          }
        }
      }
      JOINT left_manubrium
      {
        OFFSET 5.722621 16.35077 3.967754
        CHANNELS 3 Zrotation Xrotation Yrotation
        JOINT left_clavicle
        {
          OFFSET 13.16364 1.694482 -4.693211
          CHANNELS 3 Zrotation Xrotation Yrotation
          JOINT left_humerus
          {
            OFFSET 29.39168 -1.063119 -2.237045
            CHANNELS 3 Zrotation Xrotation Yrotation
            JOINT left_radius
            {
              OFFSET 24.59957 -0.9528479 0.9047498
              CHANNELS 3 Zrotation Xrotation Yrotation
              End Site
              {
                OFFSET 15 -0 -0
              }
            }
          }
        }
      }
    }
  }
}
MOTION
Frames: 21
Frame Time: 0.0416666666667
-129.6005 88.71094 547.8123 -20.9493 -2.809594 -81.01211 7.60313 -4.410931 -0.443586 -0 25.73779 -0 -13.43495 -4.071663 -11.73077 4.773803 6.451755 -1.599707 -0 33.20334 -0 12.20534 -1.13594 1.889097 3.196508 -4.280222 3.801999 0.7196634 20.6908 -7.090464 4.177653 19.94762 -6.304088 -4.810306 -11.19214 -0.03214006 -4.361503 -35.14322 15.7574 101.8721 -7.638373 -12.6338 -0 0 23.48146 -33.23108 25.14666 26.40254 -11.50788 -22.12561 -24.35105 -89.04827 19.85538 38.47461 0 0 -29.99969 -24.01847 15.72399 43.16301
-135.1252 88.74073 549.7926 -21.02242 -2.162283 -82.70096 7.603227 -4.410752 -0.4432624 -0 25.73778 -0 -13.43494 -4.072116 -11.73084 4.773861 6.451521 -1.599717 -0 33.20322 -0 12.20539 -1.135886 1.889418 3.196528 -4.280305 3.802103 0.7196408 20.69083 -7.090544 4.17763 19.94751 -6.304065 -4.810361 -11.19225 -0.03204493 -4.361603 -35.14328 15.75728 101.8721 -7.63796 -12.63389 -0 0 23.48174 -33.23074 25.14669 26.4022 -11.50777 -22.12568 -24.35077 -89.04815 19.85511 38.47467 0 0 -29.99964 -24.01794 15.72417 43.16241
-140.7096 88.77051 551.5978 -21.0763 -1.513085 -84.38835 7.60332 -4.41036 -0.4429222 -0 25.73778 -0 -13.43486 -4.072631 -11.73082 4.773922 6.451069 -1.599761 -0 33.20284 -0 12.20534 -1.135813 1.889803 3.196548 -4.28038 3.802242 0.7196204 20.69082 -7.0906 4.177584 19.94737 -6.303985 -4.810389 -11.19245 -0.03191772 -4.361643 -35.14335 15.75716 101.8718 -7.637413 -12.63392 -0 0 23.48216 -33.23034 25.14672 26.40182 -11.50754 -22.12572 -24.35034 -89.04818 19.85477 38.47482 0 0 -29.99929 -24.01721 15.72437 43.16154
-146.3482 88.80028 553.2258 -21.11094 -0.862584 -86.07471 7.603402 -4.409796 -0.4425935 -0 25.73779 -0 -13.43472 -4.073164 -11.73072 4.773981 6.450445 -1.599835 -0 33.20223 -0 12.20521 -1.135729 1.890218 3.196566 -4.280441 3.802402 0.7196035 20.69079 -7.090628 4.177521 19.94722 -6.303856 -4.810388 -11.19271 -0.03177008 -4.361624 -35.14343 15.75703 101.8715 -7.636781 -12.63389 -0 0 23.48266 -33.2299 25.14674 26.40144 -11.50723 -22.12574 -24.3498 -89.04833 19.85439 38.47505 0 0 -29.99868 -24.01635 15.72458 43.16048
-152.0353 88.83003 554.6753 -21.12638 -0.2113608 -87.76046 7.603467 -4.409113 -0.4423026 -0 25.73781 -0 -13.43453 -4.073671 -11.73054 4.774034 6.449707 -1.599929 -0 33.20146 -0 12.20501 -1.135639 1.890628 3.196579 -4.280483 3.80257 0.7195915 20.69073 -7.090627 4.177447 19.94707 -6.303691 -4.81036 -11.19302 -0.03161486 -4.361549 -35.14351 15.75693 101.8711 -7.636121 -12.6338 -0 0 23.48321 -33.22947 25.14675 26.40109 -11.50685 -22.12572 -24.3492 -89.0486 19.85402 38.47534 0 0 -29.99787 -24.01543 15.72478 43.15934
-157.7652 88.85976 555.9448 -21.12263 0.4400076 -89.44604 7.60351 -4.408371 -0.4420714 -0 25.73784 -0 -13.43432 -4.074112 -11.7303 4.774077 6.448919 -1.600038 -0 33.2006 -0 12.20475 -1.135552 1.891001 3.196588 -4.280505 3.802732 0.7195851 20.69065 -7.090598 4.177367 19.94693 -6.303504 -4.810308 -11.19335 -0.03146495 -4.361426 -35.14358 15.75684 101.8707 -7.635485 -12.63366 -0 0 23.48377 -33.22908 25.14676 26.4008 -11.50645 -22.12568 -24.34859 -89.04896 19.85367 38.47565 0 0 -29.99693 -24.01453 15.72496 43.1582
-163.5324 88.88945 557.033 -21.09975 1.09095 -91.13188 7.603529 -4.407632 -0.4419163 -0 25.73787 -0 -13.43409 -4.074453 -11.73002 4.774106 6.448147 -1.60015 -0 33.19971 -0 12.20447 -1.135475 1.891307 3.196592 -4.280504 3.802874 0.7195846 20.69055 -7.090545 4.177289 19.94681 -6.303312 -4.810237 -11.19367 -0.03133227 -4.361269 -35.14364 15.75679 101.8702 -7.634926 -12.63349 -0 0 23.48427 -33.22876 25.14675 26.40058 -11.50605 -22.12561 -24.34802 -89.04938 19.85337 38.47597 0 0 -29.99594 -24.01373 15.7251 43.15715
-169.3309 88.91911 557.9388 -21.05775 1.740902 -92.81841 7.603523 -4.406958 -0.4418465 -0 25.7379 -0 -13.43387 -4.074671 -11.72974 4.774121 6.447453 -1.600256 -0 33.19887 -0 12.20418 -1.135414 1.891524 3.196591 -4.280482 3.802987 0.7195898 20.69046 -7.090473 4.177218 19.94672 -6.303131 -4.810154 -11.19396 -0.03122688 -4.36109 -35.14369 15.75677 101.8698 -7.634485 -12.6333 -0 0 23.48469 -33.22853 25.14674 26.40046 -11.50569 -22.12552 -24.34754 -89.04982 19.85316 38.47627 0 0 -29.99499 -24.01308 15.72519 43.15628
-175.1552 88.94874 558.6613 -20.99668 2.389302 -94.50607 7.603494 -4.406399 -0.4418643 -0 25.73793 -0 -13.43368 -4.074755 -11.72946 4.774119 6.446891 -1.600349 -0 33.19815 -0 12.20391 -1.135372 1.891639 3.196584 -4.280442 3.803062 0.7196 20.69036 -7.090389 4.177161 19.94667 -6.302975 -4.810066 -11.19418 -0.03115617 -4.360905 -35.14371 15.75677 101.8694 -7.634192 -12.63311 -0 0 23.485 -33.22842 25.14672 26.40044 -11.5054 -22.12543 -24.34718 -89.05024 19.85303 38.47652 0 0 -29.99416 -24.01263 15.72523 43.15565
-180.9995 88.97834 559.1999 -20.91657 3.035597 -96.19529 7.603444 -4.405996 -0.4419644 -0 25.73796 -0 -13.43353 -4.074702 -11.72922 4.774102 6.446499 -1.600421 -0 33.19761 -0 12.20368 -1.135352 1.891647 3.196574 -4.280388 3.803095 0.7196143 20.69028 -7.0903 4.177121 19.94666 -6.302855 -4.809981 -11.19434 -0.03112441 -4.36073 -35.14371 15.75681 101.8692 -7.634066 -12.63293 -0 0 23.48517 -33.22841 25.14669 26.40051 -11.50519 -22.12533 -24.34697 -89.05061 19.853 38.47671 0 0 -29.9935 -24.01241 15.72522 43.1553
-186.8578 89.00792 559.554 -20.81745 3.679232 -97.8865 7.60338 -4.405775 -0.4421353 -0 25.73798 -0 -13.43343 -4.074522 -11.72903 4.774073 6.446304 -1.600468 -0 33.19727 -0 12.2035 -1.135356 1.891551 3.19656 -4.280324 3.803085 0.7196312 20.69022 -7.090213 4.1771 19.94669 -6.30278 -4.809905 -11.19441 -0.03113256 -4.360578 -35.1437 15.75688 101.869 -7.63411 -12.63277 -0 0 23.4852 -33.22851 25.14667 26.40067 -11.50508 -22.12525 -24.34691 -89.0509 19.85307 38.47682 0 0 -29.99306 -24.01243 15.72515 43.15525
-192.7244 89.03748 559.7232 -20.69935 4.319657 -99.58014 7.603306 -4.405747 -0.4423603 -0 25.73799 -0 -13.43339 -4.074236 -11.7289 4.774033 6.446312 -1.600486 -0 33.19715 -0 12.2034 -1.135381 1.891363 3.196544 -4.280257 3.803034 0.7196492 20.69017 -7.090136 4.177101 19.94676 -6.302753 -4.809844 -11.1944 -0.03117829 -4.360461 -35.14366 15.75697 101.869 -7.634312 -12.63266 -0 0 23.48508 -33.22871 25.14664 26.4009 -11.50508 -22.12517 -24.34701 -89.0511 19.85322 38.47685 0 0 -29.99286 -24.01267 15.72504 43.15549
-198.5935 89.06704 559.7073 -20.56229 4.956321 -101.2766 7.60323 -4.405905 -0.4426187 -0 25.738 -0 -13.4334 -4.073871 -11.72885 4.773987 6.446514 -1.600475 -0 33.19727 -0 12.20336 -1.135425 1.891103 3.196528 -4.280191 3.802948 0.719667 20.69015 -7.090074 4.177121 19.94685 -6.302776 -4.809802 -11.19431 -0.03125631 -4.360386 -35.14362 15.75706 101.869 -7.634651 -12.63259 -0 0 23.48485 -33.22898 25.14661 26.40118 -11.50518 -22.12511 -24.34724 -89.05118 19.85344 38.4768 0 0 -29.99292 -24.01311 15.7249 43.15599
-204.4591 89.0966 559.5065 -20.40628 5.588671 -102.9764 7.603157 -4.406229 -0.4428882 -0 25.73799 -0 -13.43347 -4.07346 -11.72887 4.773939 6.446886 -1.600438 -0 33.19759 -0 12.20341 -1.135484 1.890795 3.196512 -4.280133 3.802837 0.719683 20.69016 -7.090032 4.177158 19.94696 -6.302843 -4.809782 -11.19415 -0.03135895 -4.360359 -35.14356 15.75716 101.8692 -7.635092 -12.63257 -0 0 23.48451 -33.22931 25.14659 26.40148 -11.50536 -22.12508 -24.34759 -89.05115 19.85372 38.47667 0 0 -29.99322 -24.0137 15.72474 43.15669
-210.3156 89.12617 559.1207 -20.23136 6.21615 -104.6798 7.603093 -4.406687 -0.4431466 -0 25.73798 -0 -13.43359 -4.073039 -11.72896 4.773892 6.447391 -1.600378 -0 33.19808 -0 12.20351 -1.135552 1.890465 3.196499 -4.280086 3.802709 0.719696 20.69019 -7.090012 4.177209 19.94708 -6.302949 -4.809785 -11.19393 -0.03147686 -4.360378 -35.1435 15.75726 101.8695 -7.635596 -12.6326 -0 0 23.48411 -33.22965 25.14657 26.40178 -11.50562 -22.12507 -24.34803 -89.05102 19.85401 38.47648 0 0 -29.99373 -24.01439 15.72457 43.15754
-216.1569 89.15576 558.5505 -20.03754 6.838196 -106.3873 7.603043 -4.407234 -0.4433734 -0 25.73797 -0 -13.43374 -4.072641 -11.7291 4.77385 6.447981 -1.600301 -0 33.1987 -0 12.20368 -1.135623 1.890142 3.196488 -4.280054 3.802576 0.7197051 20.69024 -7.090015 4.177269 19.9472 -6.303081 -4.809809 -11.19368 -0.03159983 -4.360442 -35.14344 15.75734 101.8698 -7.636119 -12.63268 -0 0 23.48367 -33.22999 25.14656 26.40205 -11.50592 -22.12509 -24.34851 -89.0508 19.85431 38.47625 0 0 -29.99438 -24.01512 15.72441 43.15845
-221.9774 89.18537 557.7964 -19.82486 7.454244 -108.0993 7.603011 -4.407824 -0.4435514 -0 25.73795 -0 -13.43391 -4.072298 -11.7293 4.773817 6.448606 -1.600215 -0 33.19939 -0 12.20388 -1.135691 1.889851 3.196481 -4.280038 3.802449 0.7197098 20.6903 -7.090039 4.177332 19.94731 -6.30323 -4.809852 -11.19342 -0.0317177 -4.360542 -35.14338 15.75741 101.8702 -7.636619 -12.63279 -0 0 23.48323 -33.2303 25.14656 26.40228 -11.50624 -22.12512 -24.34899 -89.05051 19.85459 38.476 0 0 -29.99513 -24.01582 15.72427 43.15935
-227.7712 89.21501 556.8591 -19.59335 8.063724 -109.816 7.602997 -4.408406 -0.4436683 -0 25.73792 -0 -13.43409 -4.072036 -11.72952 4.773795 6.449214 -1.600126 -0 33.2001 -0 12.20411 -1.135751 1.889614 3.196479 -4.280041 3.802337 0.7197097 20.69038 -7.090083 4.177394 19.9474 -6.303382 -4.809909 -11.19317 -0.03182111 -4.360669 -35.14333 15.75745 101.8705 -7.637054 -12.63293 -0 0 23.48284 -33.23055 25.14657 26.40244 -11.50655 -22.12518 -24.34943 -89.05017 19.85481 38.47575 0 0 -29.99591 -24.01645 15.72417 43.16017
-233.5325 89.24467 555.7395 -19.34306 8.666062 -111.538 7.603004 -4.408933 -0.4437171 -0 25.7379 -0 -13.43426 -4.071873 -11.72975 4.773785 6.449756 -1.600043 -0 33.20075 -0 12.20434 -1.135798 1.889449 3.19648 -4.280059 3.802251 0.7197052 20.69045 -7.090141 4.177449 19.94747 -6.303524 -4.809975 -11.19295 -0.03190228 -4.360811 -35.1433 15.75746 101.8709 -7.637394 -12.63308 -0 0 23.48251 -33.23072 25.14658 26.40253 -11.50683 -22.12525 -24.3498 -89.04983 19.85498 38.47552 0 0 -29.99666 -24.01695 15.7241 43.16084
-239.2556 89.27436 554.4388 -19.07408 9.26068 -113.2655 7.603029 -4.409366 -0.4436968 -0 25.73788 -0 -13.43441 -4.071817 -11.72996 4.773788 6.45019 -1.59997 -0 33.20131 -0 12.20455 -1.13583 1.889366 3.196486 -4.280092 3.802194 0.7196968 20.69053 -7.090208 4.177493 19.9475 -6.303645 -4.810045 -11.19277 -0.03195556 -4.360957 -35.14328 15.75745 101.8711 -7.637614 -12.63323 -0 0 23.48228 -33.2308 25.14659 26.40254 -11.50706 -22.12532 -24.35008 -89.0495 19.85507 38.47532 0 0 -29.99731 -24.01729 15.72407 43.16132
-244.9349 89.30407 552.9583 -18.78648 9.847 -114.9988 7.603069 -4.409672 -0.4436119 -0 25.73785 -0 -13.43452 -4.071868 -11.73015 4.773802 6.450486 -1.599915 -0 33.20173 -0 12.20473 -1.135844 1.889368 3.196494 -4.280136 3.802171 0.7196853 20.69059 -7.090279 4.177524 19.94751 -6.303737 -4.810112 -11.19266 -0.03197779 -4.361095 -35.14328 15.75742 101.8713 -7.637701 -12.63337 -0 0 23.48216 -33.2308 25.14661 26.40248 -11.50722 -22.1254 -24.35024 -89.04921 19.85509 38.47518 0 0 -29.99782 -24.01745 15.72409 43.16157
